<svg width="0" height="0" class="hidden">
    <symbol fill="none" xmlns="http://www.w3.org/2000/svg" viewBox="0 0 14 14" id="check">
        <path fill-rule="evenodd" clip-rule="evenodd" d="M12.0578 3.10889C12.1809 3.23213 12.25 3.3992 12.25 3.57339C12.25 3.74758 12.1809 3.91464 12.0578 4.03789L5.70378 10.3919C5.58053 10.515 5.41346 10.5841 5.23928 10.5841C5.06509 10.5841 4.89802 10.515 4.77478 10.3919L1.92642 7.54356C1.81031 7.41895 1.7471 7.25415 1.7501 7.08385C1.75311 6.91357 1.82209 6.7511 1.94253 6.63066C2.06296 6.51023 2.22544 6.44125 2.39572 6.43824C2.56601 6.43523 2.73081 6.49845 2.85542 6.61456L5.23928 8.99841L11.1288 3.10889C11.252 2.9858 11.4191 2.91666 11.5933 2.91666C11.7674 2.91666 11.9346 2.9858 12.0578 3.10889Z" fill="#32312F"></path>
    </symbol>
    <symbol fill="none" xmlns="http://www.w3.org/2000/svg" viewBox="0 0 19 19" id="left-arrow">
        <path d="M5.27889 9.53258C5.27812 9.39809 5.30389 9.26477 5.35475 9.14026C5.4056 9.01575 5.48053 8.90251 5.57524 8.80702L11.7067 2.6756C11.8991 2.48317 12.1601 2.37506 12.4322 2.37506C12.7044 2.37506 12.9654 2.48317 13.1578 2.6756C13.3502 2.86802 13.4583 3.12901 13.4583 3.40115C13.4583 3.67328 13.3502 3.93427 13.1578 4.1267L7.74168 9.53258L13.1476 14.9385C13.315 15.1339 13.4025 15.3854 13.3925 15.6426C13.3826 15.8998 13.276 16.1438 13.094 16.3258C12.912 16.5077 12.668 16.6144 12.4108 16.6243C12.1536 16.6342 11.9022 16.5468 11.7067 16.3793L5.57524 10.2479C5.38645 10.0576 5.28002 9.80066 5.27889 9.53258Z" fill="#464646"></path>
    </symbol>
    <symbol fill="none" xmlns="http://www.w3.org/2000/svg" viewBox="0 0 22 22" id="like">
        <path d="M17.9411 5.10325C17.0869 4.17687 15.9149 3.66666 14.6407 3.66666C13.6883 3.66666 12.816 3.96778 12.0481 4.56159C11.6606 4.86129 11.3095 5.22803 11 5.656C10.6906 5.22813 10.3394 4.86129 9.95177 4.56159C9.18397 3.96778 8.31172 3.66666 7.35927 3.66666C6.08506 3.66666 4.91295 4.17687 4.05882 5.10325C3.2149 6.01881 2.75 7.26962 2.75 8.62539C2.75 10.0208 3.27004 11.2982 4.3865 12.6454C5.38526 13.8505 6.82073 15.0739 8.48304 16.4904C9.05068 16.9742 9.69408 17.5226 10.3621 18.1067C10.5387 18.2613 10.7653 18.3465 11 18.3464C11.2348 18.3464 11.4614 18.2613 11.6376 18.1069C12.3057 17.5227 12.9494 16.9741 13.5173 16.4901C15.1794 15.0737 16.6148 13.8505 17.6136 12.6453C18.7301 11.2982 19.25 10.0208 19.25 8.62526C19.25 7.26962 18.7851 6.01881 17.9411 5.10325Z" fill="currentColor"></path>
    </symbol>
    <symbol fill="none" xmlns="http://www.w3.org/2000/svg" viewBox="0 0 24 24" id="resize">
        <path fill-rule="evenodd" clip-rule="evenodd" d="M19.2 11.1C19.2 11.3387 19.2948 11.5676 19.4636 11.7364C19.6324 11.9052 19.8613 12 20.1 12C20.3387 12 20.5676 11.9052 20.7364 11.7364C20.9052 11.5676 21 11.3387 21 11.1V3.9C21 3.66131 20.9052 3.43239 20.7364 3.2636C20.5676 3.09482 20.3387 3 20.1 3H12.9C12.6613 3 12.4324 3.09482 12.2636 3.2636C12.0948 3.43239 12 3.66131 12 3.9C12 4.13869 12.0948 4.36761 12.2636 4.5364C12.4324 4.70518 12.6613 4.8 12.9 4.8H19.2V11.1ZM4.8 12.9C4.8 12.6613 4.70518 12.4324 4.5364 12.2636C4.36761 12.0948 4.13869 12 3.9 12C3.66131 12 3.43239 12.0948 3.2636 12.2636C3.09482 12.4324 3 12.6613 3 12.9V20.1C3 20.3387 3.09482 20.5676 3.2636 20.7364C3.43239 20.9052 3.66131 21 3.9 21H11.1C11.3387 21 11.5676 20.9052 11.7364 20.7364C11.9052 20.5676 12 20.3387 12 20.1C12 19.8613 11.9052 19.6324 11.7364 19.4636C11.5676 19.2948 11.3387 19.2 11.1 19.2H4.8V12.9Z" fill="#464646"></path>
    </symbol>
    <symbol fill="none" xmlns="http://www.w3.org/2000/svg" viewBox="0 0 19 19" id="right-arrow">
        <path d="M13.721 9.53258C13.7218 9.39809 13.696 9.26477 13.6452 9.14026C13.5943 9.01575 13.5194 8.90251 13.4247 8.80702L7.29326 2.6756C7.10084 2.48317 6.83985 2.37506 6.56771 2.37506C6.29558 2.37506 6.03459 2.48317 5.84216 2.6756C5.64973 2.86802 5.54163 3.12901 5.54163 3.40115C5.54163 3.67328 5.64973 3.93427 5.84216 4.1267L11.2583 9.53258L5.85238 14.9385C5.68496 15.1339 5.59748 15.3854 5.60742 15.6426C5.61735 15.8998 5.72397 16.1438 5.90597 16.3258C6.08796 16.5077 6.33193 16.6144 6.58912 16.6243C6.84631 16.6342 7.09777 16.5468 7.29327 16.3793L13.4247 10.2479C13.6135 10.0576 13.7199 9.80066 13.721 9.53258Z" fill="#464646"></path>
    </symbol>
    <symbol fill="none" xmlns="http://www.w3.org/2000/svg" viewBox="0 0 12 12" id="arrow">
        <path d="M8.66595 5.97943C8.66644 6.06437 8.65016 6.14858 8.61804 6.22721C8.58592 6.30585 8.5386 6.37737 8.47878 6.43768L4.6063 10.3102C4.48476 10.4317 4.31993 10.5 4.14805 10.5C3.97618 10.5 3.81134 10.4317 3.68981 10.3102C3.56828 10.1886 3.5 10.0238 3.5 9.85192C3.5 9.68004 3.56828 9.51521 3.68981 9.39367L7.1105 5.97943L3.69627 2.5652C3.59053 2.44173 3.53528 2.28291 3.54155 2.12047C3.54783 1.95804 3.61516 1.80395 3.73011 1.68901C3.84505 1.57406 3.99914 1.50673 4.16157 1.50045C4.32401 1.49418 4.48283 1.54943 4.6063 1.65516L8.47878 5.52764C8.59801 5.64786 8.66524 5.81012 8.66595 5.97943Z" fill="#656565"></path>
    </symbol>
</svg>